<?xml version="1.0" encoding="utf-8"?>
<!-- Generator: Adobe Illustrator 25.2.1, SVG Export Plug-In . SVG Version: 6.00 Build 0)  -->
<svg version="1.1" id="DESIGNED_BY_FREEPIK" xmlns="http://www.w3.org/2000/svg" xmlns:xlink="http://www.w3.org/1999/xlink"
	 x="0px" y="0px" viewBox="0 0 420 324" style="enable-background:new 0 0 420 324;" xml:space="preserve">
<style type="text/css">
	.st0{fill:#CEEDED;}
	.st1{fill:#D3EDE8;}
	.st2{fill:#A4D8D6;}
	.st3{fill:#F49600;}
	.st4{fill:#EDEDED;}
	.st5{fill:#13D2C2;}
	.st6{opacity:9.510000e-02;fill:#020202;enable-background:new    ;}
	.st7{fill:#F7F7F7;}
	.st8{fill:#FFFFFF;}
	.st9{fill:#B5BBC1;}
	.st10{fill:#FDAD13;}
	.st11{opacity:0.3323;fill:#FDAD13;enable-background:new    ;}
	.st12{font-family:'MyriadPro-Regular';}
	.st13{font-size:31.4783px;}
	.st14{opacity:0.1487;fill:#020202;enable-background:new    ;}
	.st15{fill:#FE693C;}
	.st16{opacity:0.3136;fill:#FE693C;enable-background:new    ;}
	.st17{fill:none;stroke:#0284C4;stroke-miterlimit:10;}
	.st18{fill:none;stroke:#0284C4;stroke-miterlimit:10;stroke-dasharray:7.9312,7.9312;}
	.st19{fill:#06637F;}
	.st20{fill:#0775A0;}
	.st21{fill:#0284C4;}
	.st22{fill:none;stroke:#0284C4;stroke-width:3;stroke-linecap:round;stroke-miterlimit:10;}
	.st23{opacity:0.4972;fill:#FFFFFF;enable-background:new    ;}
	
		.st24{opacity:0.3323;fill:none;stroke:#FDAD13;stroke-width:2;stroke-linecap:round;stroke-linejoin:round;stroke-miterlimit:10;enable-background:new    ;}
	.st25{fill:none;stroke:#13D2C2;stroke-width:4;stroke-linecap:round;stroke-miterlimit:10;}
</style>
<g>
	<path class="st0" d="M397.7,194.3c0,45.8-16.4,87.8-43.6,120.5h-289c-27.2-32.6-43.6-74.6-43.6-120.5
		C21.4,90.4,105.7,6.1,209.6,6.1S397.7,90.4,397.7,194.3z"/>
	<g>
		<path class="st1" d="M119.7,164.7H58.8c-4.4,0-7.9-3.6-7.9-7.9v-3.3c0-4.4,3.6-7.9,7.9-7.9h60.9c4.4,0,7.9,3.6,7.9,7.9v3.3
			C127.6,161.1,124.1,164.7,119.7,164.7z"/>
		<path class="st1" d="M101,151.2H87.6c-4.4,0-7.9-3.6-7.9-7.9V140c0-4.4,3.6-7.9,7.9-7.9H101c4.4,0,7.9,3.6,7.9,7.9v3.3
			C108.9,147.7,105.4,151.2,101,151.2z"/>
	</g>
	<g>
		<path class="st1" d="M303.7,214.6h60.9c4.4,0,7.9-3.5,7.9-7.9v-3.3c0-4.4-3.5-7.9-7.9-7.9h-60.9c-4.4,0-7.9,3.5-7.9,7.9v3.3
			C295.7,211,299.3,214.6,303.7,214.6z"/>
		<path class="st1" d="M322.4,201.1h13.4c4.4,0,7.9-3.5,7.9-7.9v-3.3c0-4.4-3.5-7.9-7.9-7.9h-13.4c-4.4,0-7.9,3.5-7.9,7.9v3.3
			C314.4,197.6,318,201.1,322.4,201.1z"/>
	</g>
	<path class="st2" d="M340.7,314.6H78.5c-3.6,0-6.6-3-6.6-6.6v-2.8c0-3.6,2.9-6.6,6.6-6.6h262.2c3.6,0,6.6,3,6.6,6.6v2.8
		C347.3,311.6,344.3,314.6,340.7,314.6z"/>
	<path class="st3" d="M296.6,302.7H122.5c-9.1,0-16.5-7.4-16.5-16.5v-117h207.1v117C313.1,295.3,305.7,302.7,296.6,302.7z"/>
	<path class="st3" d="M313.1,169.1H209.6H106l92.8-98c5.8-6.1,15.6-6.1,21.4,0L313.1,169.1z"/>
	<path class="st4" d="M282.1,219.5H119.3c-3.8,0-6.8-3.1-6.8-6.8V97c0-3.8,3.1-6.8,6.8-6.8h162.8c3.8,0,6.8,3.1,6.8,6.8v115.6
		C288.9,216.4,285.9,219.5,282.1,219.5z"/>
	<g>
		<path class="st5" d="M93.1,104.2h59.1c6.1,0,11.1-4.9,11.1-11.1v-4.6c0-6.1-4.9-11.1-11.1-11.1H93.1C87,77.5,82,82.5,82,88.6v4.6
			C82,99.3,87,104.2,93.1,104.2z"/>
		<path class="st5" d="M119.1,85.5h18.6c6.1,0,11.1-4.9,11.1-11.1v-4.6c0-6.1-4.9-11.1-11.1-11.1h-18.6c-6.1,0-11.1,4.9-11.1,11.1
			v4.6C108.1,80.5,113,85.5,119.1,85.5z"/>
	</g>
	<path class="st6" d="M303.1,222.9H140.4c-3.8,0-6.8-3.1-6.8-6.8V100.5c0-3.8,3.1-6.8,6.8-6.8h162.8c3.8,0,6.8,3.1,6.8,6.8v115.7
		C310,219.9,306.9,222.9,303.1,222.9z"/>
	<path class="st7" d="M298.6,227.9H135.8c-3.8,0-6.8-3.1-6.8-6.8V105.4c0-3.8,3.1-6.8,6.8-6.8h162.8c3.8,0,6.8,3.1,6.8,6.8v115.7
		C305.5,224.9,302.4,227.9,298.6,227.9z"/>
	<path class="st6" d="M291,245.6H128.2c-3.8,0-6.8-3.1-6.8-6.8V123.2c0-3.8,3.1-6.8,6.8-6.8H291c3.8,0,6.8,3.1,6.8,6.8v115.6
		C297.8,242.6,294.7,245.6,291,245.6z"/>
	<path class="st8" d="M286.7,251.1H123.9c-3.8,0-6.8-3.1-6.8-6.8V128.6c0-3.8,3.1-6.8,6.8-6.8h162.8c3.8,0,6.8,3.1,6.8,6.8v115.6
		C293.6,248,290.5,251.1,286.7,251.1z"/>
	<g>
		<path class="st9" d="M268.6,180.6H142.1c-0.8,0-1.5-0.7-1.5-1.5v-0.6c0-0.8,0.7-1.5,1.5-1.5h126.5c0.8,0,1.5,0.7,1.5,1.5v0.6
			C270.1,179.9,269.4,180.6,268.6,180.6z"/>
		<path class="st9" d="M268.6,192.7H142.1c-0.8,0-1.5-0.7-1.5-1.5v-0.6c0-0.8,0.7-1.5,1.5-1.5h126.5c0.8,0,1.5,0.7,1.5,1.5v0.6
			C270.1,192,269.4,192.7,268.6,192.7z"/>
		<path class="st9" d="M268.6,204.8H142.1c-0.8,0-1.5-0.7-1.5-1.5v-0.6c0-0.8,0.7-1.5,1.5-1.5h126.5c0.8,0,1.5,0.7,1.5,1.5v0.6
			C270.1,204.1,269.4,204.8,268.6,204.8z"/>
		<path class="st9" d="M268.6,216.8H142.1c-0.8,0-1.5-0.7-1.5-1.5v-0.6c0-0.8,0.7-1.5,1.5-1.5h126.5c0.8,0,1.5,0.7,1.5,1.5v0.6
			C270.1,216.2,269.4,216.8,268.6,216.8z"/>
		<path class="st9" d="M268.6,228.9H142.1c-0.8,0-1.5-0.7-1.5-1.5v-0.6c0-0.8,0.7-1.5,1.5-1.5h126.5c0.8,0,1.5,0.7,1.5,1.5v0.6
			C270.1,228.3,269.4,228.9,268.6,228.9z"/>
	</g>
	<path class="st10" d="M313.1,169.1v113.6c0,11-8.9,19.9-19.9,19.9H125.9c-11,0-19.9-8.9-19.9-19.9V169.1l103.5,67L313.1,169.1z"/>
	<path class="st11" d="M284.9,187.4v67.2c0,11-8.9,19.9-19.9,19.9H106v8.3c0,11,8.9,19.9,19.9,19.9h167.2c11,0,19.9-8.9,19.9-19.9
		V169.1L284.9,187.4z"/>
	<path class="st10" d="M125.8,262.5h-2.2c-2.9,0-5.2-2.4-5.2-5.2v-14.5c0-2.9,2.4-5.2,5.2-5.2h2.2c2.9,0,5.2,2.4,5.2,5.2v14.5
		C131,260.2,128.7,262.5,125.8,262.5z"/>
	<path class="st10" d="M125.8,233h-2.2c-2.9,0-5.2-2.4-5.2-5.2v-3.9c0-2.9,2.4-5.2,5.2-5.2h2.2c2.9,0,5.2,2.4,5.2,5.2v3.9
		C131,230.6,128.7,233,125.8,233z"/>
	<text transform="matrix(1 0 0 1 139.0737 162.6309)" class="st9 st12 st13">@</text>
	<path class="st9" d="M235.8,154.8h-60.2c-0.8,0-1.5-0.7-1.5-1.5v-0.6c0-0.8,0.7-1.5,1.5-1.5h60.2c0.8,0,1.5,0.7,1.5,1.5v0.6
		C237.3,154.1,236.6,154.8,235.8,154.8z"/>
	<path class="st9" d="M267.5,166.8h-92c-0.8,0-1.5-0.7-1.5-1.5v-0.6c0-0.8,0.7-1.5,1.5-1.5h92c0.8,0,1.5,0.7,1.5,1.5v0.6
		C269,166.2,268.3,166.8,267.5,166.8z"/>
	<ellipse class="st14" cx="315.7" cy="245.9" rx="32.2" ry="32.2"/>
	<ellipse class="st15" cx="311.5" cy="240.6" rx="32.2" ry="32.2"/>
	<path class="st16" d="M343.7,240.6c0,17.8-14.4,32.2-32.2,32.2c-11,0-20.8-5.5-26.5-14c5.2,3.5,11.5,5.6,18.2,5.6
		c17.8,0,32.2-14.4,32.2-32.2c0-6.8-2.1-13-5.6-18.2C338.2,219.9,343.7,229.6,343.7,240.6z"/>
	<path class="st8" d="M323.8,229.8c-1.5-1.5-3.6-2.5-6-2.5c-1.8,0-3.5,0.6-4.9,1.6c-0.4,0.3-0.7,0.6-1.1,0.9
		c-0.1,0.1-0.2,0.2-0.4,0.4c-0.1-0.1-0.2-0.2-0.4-0.4c-0.3-0.3-0.7-0.6-1.1-0.9c-1.4-1-3.1-1.6-4.9-1.6c-2.3,0-4.4,0.9-6,2.5
		s-2.5,3.6-2.5,6c0,1.8,0.6,3.5,1.6,4.9l1.9,1.9l11.2,11.2l11.2-11.2l1.9-1.9c1-1.4,1.6-3.1,1.6-4.9
		C326.2,233.5,325.3,231.4,323.8,229.8z"/>
	<g>
		<path class="st15" d="M286.5,242.5C286.5,242.5,286.5,242.5,286.5,242.5c-1.7,0-3-1.4-3-3.1c0.1-8.7,5.6-25.3,25.6-25.5
			c0,0,0,0,0,0c1.6,0,3,1.3,3,3c0,1.7-1.3,3-3,3.1c-19.1,0.3-19.7,18.8-19.7,19.6C289.5,241.2,288.1,242.5,286.5,242.5z"/>
	</g>
	<g>
		<path class="st0" d="M21.1,255.5h53.1c5.5,0,9.9-4.5,9.9-9.9v-4.1c0-5.5-4.4-9.9-9.9-9.9H21.1c-5.5,0-9.9,4.5-9.9,9.9v4.1
			C11.2,251.1,15.6,255.5,21.1,255.5z"/>
		<path class="st0" d="M35.3,238.7H52c5.5,0,9.9-4.5,9.9-9.9v-4.1c0-5.5-4.4-9.9-9.9-9.9H35.3c-5.5,0-9.9,4.5-9.9,9.9v4.1
			C25.4,234.2,29.8,238.7,35.3,238.7z"/>
	</g>
	<g>
		<path class="st5" d="M17.3,252.1h53.1c5.5,0,9.9-4.5,9.9-9.9V238c0-5.5-4.4-9.9-9.9-9.9H17.3c-5.5,0-9.9,4.5-9.9,9.9v4.1
			C7.3,247.6,11.8,252.1,17.3,252.1z"/>
		<path class="st5" d="M31.4,235.2h16.7c5.5,0,9.9-4.5,9.9-9.9v-4.1c0-5.5-4.4-9.9-9.9-9.9H31.4c-5.5,0-9.9,4.5-9.9,9.9v4.1
			C21.5,230.8,26,235.2,31.4,235.2z"/>
	</g>
	<g>
		<g>
			<path class="st17" d="M110.5,129.7c-1.1,0.7-2.2,1.5-3.3,2.2"/>
			<path class="st18" d="M100.7,136.5c-7.6,5.6-14.7,11.8-19.8,19.6c-7.2,11.2-9.3,26.8-1.4,37.6c6.8,9.2,18.8,12.6,30.2,13.9
				c26.3,3,53-2.1,77.6-11.8c24.6-9.6,47.3-23.7,68.9-38.8c10-7,19.9-14.2,28.3-23.1c9.4-10,13.6-22.7,19.2-35.1
				c1.9-4.2,3.5-9.6,0.3-12.8c-1.8-1.8-4.5-2.1-7-1.8c-4.9,0.7-9.3,4.2-11.1,8.8c-1.8,4.6-1,10.1,2,14c4.2,5.4,11.9,7,18.5,5.6
				c6.6-1.4,12.5-5.3,17.8-9.5c11.3-8.9,21.3-19.4,29.7-31.1"/>
			<path class="st17" d="M356.2,68.7c0.8-1.1,1.5-2.2,2.2-3.3"/>
		</g>
	</g>
	<g>
		<polygon class="st19" points="323.8,106.9 346.5,85.7 333.7,82.1 		"/>
		<g>
			<polygon class="st20" points="324,75.7 323.8,106.9 334.4,82.7 397.6,32.9 323.4,73.9 			"/>
			<path class="st21" d="M305.5,66.9l18.7,8.6l73.4-42.6l-92,31.8C304.6,65.1,304.5,66.5,305.5,66.9z"/>
			<path class="st21" d="M397.6,32.9l-63.1,49.8l24.2,11.7c0.8,0.4,1.8,0.1,2.2-0.6L397.6,32.9z"/>
		</g>
		<line class="st22" x1="318.9" y1="65.3" x2="362.2" y2="48.7"/>
	</g>
	<g>
		<path class="st23" d="M70.4,143.2c0,3.1-2.5,5.6-5.6,5.6s-5.6-2.5-5.6-5.6c0-3.1,2.5-5.6,5.6-5.6
			C67.9,137.6,70.4,140.1,70.4,143.2z"/>
		<path class="st23" d="M181.7,67.4c0,3.1-2.5,5.6-5.6,5.6c-3.1,0-5.6-2.5-5.6-5.6c0-3.1,2.5-5.6,5.6-5.6
			C179.2,61.8,181.7,64.3,181.7,67.4z"/>
		<path class="st23" d="M93.1,269.6c0,3.1-2.5,5.6-5.6,5.6c-3.1,0-5.6-2.5-5.6-5.6s2.5-5.6,5.6-5.6C90.6,264,93.1,266.5,93.1,269.6z
			"/>
		<circle class="st23" cx="45.3" cy="162.2" r="10.9"/>
		<ellipse class="st23" cx="361.9" cy="218.6" rx="8.8" ry="8.8"/>
		<path class="st23" d="M368.2,240.7c0,3.4-2.7,6.1-6.1,6.1s-6.1-2.7-6.1-6.1s2.7-6.1,6.1-6.1S368.2,237.4,368.2,240.7z"/>
	</g>
	<polyline class="st24" points="110.1,181.8 209.4,248.1 304.2,188.2 	"/>
	<g>
		<g>
			<path class="st0" d="M402.8,194.1H339c-6.6,0-11.9-5.3-11.9-11.9v-5c0-6.6,5.3-11.9,11.9-11.9h63.8c6.6,0,11.9,5.3,11.9,11.9v5
				C414.7,188.7,409.3,194.1,402.8,194.1z"/>
			<path class="st0" d="M374.7,173.9h-20.1c-6.6,0-11.9-5.3-11.9-11.9v-5c0-6.6,5.3-11.9,11.9-11.9h20.1c6.6,0,11.9,5.3,11.9,11.9v5
				C386.6,168.5,381.3,173.9,374.7,173.9z"/>
		</g>
		<g>
			<path class="st5" d="M396.2,188.9h-63.8c-6.6,0-11.9-5.3-11.9-11.9v-5c0-6.6,5.3-11.9,11.9-11.9h63.8c6.6,0,11.9,5.3,11.9,11.9v5
				C408.1,183.6,402.8,188.9,396.2,188.9z"/>
			<path class="st5" d="M368.2,168.7h-20.1c-6.6,0-11.9-5.3-11.9-11.9v-5c0-6.6,5.3-11.9,11.9-11.9h20.1c6.6,0,11.9,5.3,11.9,11.9v5
				C380.1,163.4,374.7,168.7,368.2,168.7z"/>
		</g>
		<path class="st25" d="M342.7,159.4c0,0-4.7-12.9,9.2-15"/>
		<path class="st25" d="M114.9,79.1c0,0-4.7-12.9,9.2-15"/>
		<path class="st25" d="M29.5,230.1c0,0-4.7-12.9,9.2-15"/>
	</g>
</g>
</svg>
